<?xml version="1.0" encoding="utf-8"?>
<!-- Generator: Adobe Illustrator 24.2.0, SVG Export Plug-In . SVG Version: 6.00 Build 0)  -->
<svg version="1.1" id="Layer_1" xmlns="http://www.w3.org/2000/svg" xmlns:xlink="http://www.w3.org/1999/xlink" x="0px" y="0px"
	 width="317px" height="69.4px" viewBox="0 0 317 69.4" style="enable-background:new 0 0 317 69.4;" xml:space="preserve">
<g>
	<path d="M34.2,16.8v40c0,0.5-0.2,1.1-0.5,1.6c-0.3,0.6-0.7,1-1,1.3l-7.8,5.6c-0.4,0.3-0.8,0.4-1.1,0.2c-0.3-0.1-0.4-0.5-0.4-1
		l-0.1-49.6v-0.1c0-0.5-0.1-1.1-0.4-1.7s-0.6-1-1.1-1.3l-4.5-3.2c-0.4-0.3-0.9-0.5-1.5-0.5c-0.6,0-1.1,0.2-1.5,0.5l-1.9,1.3
		c-0.4,0.3-0.8,0.7-1.1,1.3c-0.3,0.6-0.4,1.1-0.4,1.7v43.8c0,0.5-0.2,1.1-0.5,1.7c-0.3,0.6-0.7,1-1,1.3l-7.8,5.6
		c-0.4,0.3-0.8,0.4-1.1,0.2c-0.3-0.1-0.4-0.5-0.4-1L0,3.8c0-0.5,0.2-0.9,0.5-1c0.3-0.1,0.7-0.1,1,0.2L8,7.6c0.4,0.3,0.9,0.5,1.5,0.5
		c0.6,0,1.1-0.2,1.5-0.5l8.9-6.4c0.4-0.3,0.9-0.4,1.5-0.4c0.6,0,1.1,0.1,1.5,0.4l8.7,6.2c0.4,0.3,0.9,0.5,1.5,0.5
		c0.6,0,1.1-0.2,1.5-0.5l8.7-6.2c0.4-0.3,0.9-0.4,1.5-0.4c0.6,0,1.1,0.1,1.5,0.4L56,8.1c0.4,0.3,0.8,0.7,1.1,1.3
		c0.3,0.6,0.4,1.1,0.4,1.7l0.1,58.5c0,0.5-0.2,0.9-0.5,1c-0.3,0.1-0.7,0.1-1-0.2l-7.9-5.7c-0.4-0.3-0.8-0.7-1.1-1.3
		c-0.3-0.6-0.4-1.1-0.4-1.6V14.8c0-0.5-0.2-1.1-0.5-1.7c-0.3-0.6-0.7-1-1-1.3l-4.6-3.2c-0.4-0.3-0.9-0.5-1.5-0.5
		c-0.6,0-1.1,0.2-1.5,0.5L35.7,10c-0.4,0.3-0.8,0.7-1.1,1.3c-0.3,0.6-0.4,1.1-0.4,1.7V16.8z"/>
	<path d="M65.3,7.2c-0.4,0.2-0.9,0.4-1.4,0.5c-0.5,0.1-1,0-1.3-0.3c-0.3-0.2-0.5-0.5-0.4-0.9c0.1-0.3,0.3-0.6,0.8-0.9l7.2-4.7
		c0.4-0.3,0.9-0.5,1.4-0.5c0.6,0,1,0,1.3,0.2c0.3,0.2,0.4,0.5,0.3,0.9c-0.1,0.3-0.3,0.6-0.8,0.9L65.3,7.2z M62.5,26.5
		c0-0.5,0.2-1.1,0.5-1.6c0.3-0.6,0.7-1,1-1.3l7.6-5c0.4-0.3,0.8-0.3,1.1-0.2c0.3,0.2,0.5,0.5,0.5,1L73,57.4c0,0.5-0.2,1.1-0.5,1.6
		c-0.3,0.6-0.7,1-1.1,1.3l-7.5,5c-0.4,0.3-0.8,0.4-1.1,0.2c-0.3-0.1-0.5-0.5-0.5-1L62.5,26.5z"/>
	<path d="M111.8,64.5c0,0.5-0.1,0.9-0.4,1c-0.3,0.2-0.7,0.1-1.1-0.1l-7.5-4.6c-0.4-0.3-0.8-0.7-1.1-1.3c-0.3-0.6-0.5-1.1-0.5-1.6
		V29.7c0-0.5-0.2-1.1-0.5-1.7c-0.3-0.6-0.7-1-1.1-1.2l-2.2-1.4c-0.4-0.3-1-0.4-1.6-0.4c-0.6,0-1.2,0.1-1.6,0.4l-2.8,1.8
		c-0.4,0.2-0.8,0.6-1.1,1.2c-0.3,0.6-0.5,1.1-0.5,1.7l-0.1,34.4c0,0.5-0.2,0.9-0.5,1c-0.3,0.1-0.7,0.1-1.1-0.1l-7.3-4.7
		c-0.4-0.2-0.8-0.6-1.1-1.2c-0.3-0.6-0.5-1.1-0.5-1.7V28.6v-3.7v-4.5c0-0.5,0.2-0.9,0.5-1c0.3-0.2,0.7-0.1,1.1,0.2l7.4,4.6
		c0.4,0.3,1,0.4,1.6,0.4c0.6,0,1.2-0.1,1.6-0.4l8.4-5.3c0.4-0.2,1-0.4,1.6-0.4c0.6,0,1.2,0.1,1.6,0.4l7.2,4.6
		c0.4,0.2,0.8,0.6,1.1,1.2c0.3,0.6,0.4,1.1,0.4,1.6L111.8,64.5z"/>
	<path d="M119.3,7.2c-0.4,0.2-0.9,0.4-1.4,0.5c-0.5,0.1-1,0-1.3-0.3c-0.3-0.2-0.5-0.5-0.4-0.9c0.1-0.3,0.3-0.6,0.8-0.9l7.2-4.7
		c0.4-0.3,0.9-0.5,1.4-0.5c0.6,0,1,0,1.3,0.2c0.3,0.2,0.4,0.5,0.3,0.9c-0.1,0.3-0.3,0.6-0.8,0.9L119.3,7.2z M116.5,26.5
		c0-0.5,0.2-1.1,0.5-1.6c0.3-0.6,0.7-1,1-1.3l7.6-5c0.4-0.3,0.8-0.3,1.1-0.2c0.3,0.2,0.5,0.5,0.5,1l-0.1,37.9c0,0.5-0.2,1.1-0.5,1.6
		c-0.3,0.6-0.7,1-1.1,1.3l-7.5,5c-0.4,0.3-0.8,0.4-1.1,0.2c-0.3-0.1-0.5-0.5-0.5-1L116.5,26.5z"/>
	<path d="M145.8,43.2c-0.4,0.3-0.8,0.7-1.1,1.3c-0.3,0.6-0.5,1.1-0.5,1.6l0.1,11c0,0.5-0.2,1.1-0.5,1.6c-0.3,0.6-0.7,1-1.1,1.3
		l-7.8,5.3c-0.4,0.3-0.7,0.4-1,0.2c-0.3-0.1-0.5-0.5-0.5-1l0.1-62.8c0-0.5,0.2-0.9,0.5-1s0.6-0.1,1.1,0.2l7.5,5.1
		c0.4,0.3,0.9,0.4,1.5,0.4c0.6,0,1.1-0.1,1.5-0.4l7.3-5c0.4-0.3,0.9-0.4,1.5-0.4c0.6,0,1.1,0.1,1.5,0.4l8.9,6
		c0.4,0.3,0.8,0.7,1.1,1.3c0.3,0.6,0.5,1.1,0.5,1.6v17.3c0,0.5-0.2,1.1-0.5,1.6c-0.3,0.6-0.7,1-1.1,1.3L145.8,43.2z M150.7,7.9
		c-0.4-0.3-0.9-0.4-1.5-0.4c-0.6,0-1.1,0.1-1.5,0.4l-1.8,1.2c-0.4,0.3-0.8,0.7-1.1,1.3c-0.3,0.6-0.5,1.1-0.5,1.6v27.1
		c0,0.5,0.2,0.9,0.5,1c0.3,0.1,0.7,0.1,1.1-0.2l8.2-5.6c0.4-0.3,0.8-0.7,1.1-1.3c0.3-0.6,0.4-1.1,0.4-1.6v-1.2v-1.9v-1.9V13.1
		c0-0.5-0.1-1.1-0.4-1.7s-0.6-1-1.1-1.3L150.7,7.9z"/>
	<path d="M203.2,50.6c0,0.5-0.2,1.1-0.5,1.6c-0.3,0.6-0.7,0.9-1.1,1.2L183,65.2c-0.4,0.2-1,0.4-1.6,0.4s-1.2-0.1-1.6-0.4l-7.3-4.7
		c-0.4-0.3-0.8-0.7-1.1-1.3c-0.3-0.6-0.5-1.1-0.5-1.6v-24c0-0.5,0.2-1.1,0.5-1.6c0.3-0.6,0.7-1,1.1-1.3l18.9-11.9
		c0.4-0.3,0.9-0.4,1.5-0.4c0.6,0,1.1,0.1,1.5,0.4l7.2,4.5c0.4,0.2,0.8,0.6,1.1,1.2c0.3,0.6,0.5,1.1,0.5,1.6V50.6z M181.5,54.2
		c0,0.5,0.1,1.1,0.4,1.6c0.3,0.6,0.7,0.9,1.2,1.2l2.5,1.7c0.4,0.2,0.9,0.4,1.5,0.4c0.6,0,1.1-0.1,1.5-0.4l2.4-1.5
		c0.4-0.2,0.8-0.6,1.1-1.2c0.3-0.6,0.5-1.1,0.5-1.7V29.6c0-0.5-0.2-1.1-0.5-1.6c-0.3-0.6-0.7-1-1.1-1.3l-2.2-1.4
		c-0.4-0.2-1-0.4-1.6-0.4c-0.6,0-1.2,0.1-1.6,0.4l-2.7,1.7c-0.4,0.2-0.8,0.6-1.1,1.2c-0.3,0.6-0.4,1.1-0.4,1.7V54.2z"/>
	<path d="M238.1,24.2c0,0.4-0.2,0.7-0.6,1l-4.3,2.8c-0.4,0.3-1,0.4-1.6,0.4c-0.6,0-1.2-0.1-1.6-0.4l-4.4-3c-0.4-0.3-0.9-0.4-1.5-0.5
		c-0.6,0-1.1,0.1-1.5,0.4l-2.7,1.7c-0.4,0.3-0.8,0.7-1.1,1.3c-0.3,0.6-0.5,1.1-0.5,1.6v34.9c0,0.5-0.2,0.9-0.5,1
		c-0.3,0.1-0.7,0.1-1.1-0.1l-7.4-4.8c-0.4-0.3-0.8-0.7-1.1-1.3c-0.3-0.6-0.4-1.1-0.4-1.6V20.1c0-0.5,0.2-0.9,0.5-1
		c0.3-0.1,0.7-0.1,1,0.2l7.5,5l0.1,0.1c0.4,0.2,0.8,0.4,1.4,0.4c0.5,0,1-0.1,1.4-0.3c0,0,0.1-0.1,0.1-0.1c0,0,0.1-0.1,0.1-0.1
		l8.3-5.3c0.4-0.2,1-0.4,1.6-0.4c0.6,0,1.2,0.1,1.6,0.4l6.3,4.2C237.9,23.5,238.1,23.8,238.1,24.2z"/>
	<path d="M258,64.5c0,0.5-0.1,0.9-0.4,1c-0.3,0.1-0.6,0.1-1.1-0.2l-7.6-5c-0.4-0.3-0.8-0.7-1.1-1.3c-0.3-0.6-0.5-1.1-0.5-1.7
		l-0.1-26.5c0-0.5-0.2-1-0.5-1.3c-0.4-0.4-0.8-0.5-1.3-0.5h-8.3c-0.5,0-0.8-0.1-0.9-0.3c0-0.2,0.1-0.4,0.6-0.7l4.2-2.7
		c0.4-0.3,1-0.5,1.7-0.7c0.7-0.2,1.3-0.3,1.8-0.3h0.9c0.5,0,1-0.2,1.3-0.5c0.4-0.4,0.5-0.8,0.5-1.3l0.1-8.2c0-0.5,0.2-1.1,0.5-1.6
		c0.3-0.6,0.7-1,1.1-1.3l7.4-4.8c0.4-0.3,0.8-0.4,1.1-0.2s0.5,0.5,0.5,1l-0.1,15c0,0.5,0.2,1,0.5,1.3c0.4,0.4,0.8,0.5,1.3,0.5h12.6
		c0.5,0,0.8,0.1,0.9,0.3c0.1,0.2-0.1,0.4-0.5,0.7l-4.1,2.7c-0.4,0.2-0.9,0.5-1.6,0.7c-0.7,0.2-1.3,0.3-1.8,0.3h-5.5
		c-0.5,0-1,0.2-1.3,0.5c-0.4,0.4-0.5,0.8-0.5,1.3L258,64.5z"/>
	<path d="M302.1,64.5c0,0.5-0.2,0.9-0.5,1c-0.3,0.1-0.7,0.1-1-0.1l-8.1-5.3c-0.5-0.3-1-0.3-1.3-0.2c-0.4,0.2-0.9,0.5-1.8,1l-7.1,4.3
		c-0.5,0.2-1,0.4-1.6,0.4c-0.6,0-1.1-0.1-1.5-0.4l-7.6-5c-0.4-0.3-0.8-0.7-1.1-1.3c-0.3-0.6-0.5-1.1-0.5-1.6v-8.6
		c0-0.5,0.2-1.1,0.5-1.6c0.3-0.6,0.7-1,1.1-1.3L289.6,34c0.4-0.3,0.8-0.7,1.1-1.3c0.3-0.6,0.4-1.1,0.4-1.6v-0.3
		c0-0.5-0.1-1.1-0.4-1.6c-0.3-0.5-0.7-0.9-1.2-1.2l-3.9-2.4c-0.4-0.2-0.9-0.4-1.5-0.4c-0.6,0-1.1,0.1-1.5,0.4l-5.3,3.5
		c-0.4,0.2-0.9,0.4-1.4,0.5c-0.5,0.1-1,0-1.3-0.3c-0.3-0.2-0.5-0.5-0.4-0.9c0.1-0.3,0.3-0.6,0.7-0.9l12.9-8.6
		c0.4-0.3,0.9-0.4,1.5-0.5c0.6,0,1.2,0.1,1.6,0.4l9.9,6.2c0.4,0.3,0.8,0.7,1.1,1.3c0.3,0.6,0.4,1.1,0.4,1.6L302.1,64.5z M291.1,38
		c0-0.5-0.1-0.9-0.4-1c-0.3-0.1-0.6-0.1-1.1,0.2l-7.7,5c-0.4,0.3-0.8,0.7-1.1,1.3c-0.3,0.6-0.5,1.1-0.5,1.6l0.1,10.1
		c0,0.5,0.2,1.1,0.5,1.6c0.3,0.6,0.7,0.9,1.1,1.2l2.4,1.5c0.4,0.3,1,0.4,1.6,0.4s1.2-0.1,1.6-0.4l2-1.3c0.4-0.3,0.8-0.7,1.1-1.3
		c0.3-0.6,0.4-1.1,0.4-1.6V38z"/>
	<path d="M317.2,64.5c0,0.5-0.1,0.9-0.4,1c-0.3,0.1-0.6,0.1-1.1-0.2l-7.4-5c-0.4-0.3-0.8-0.7-1.1-1.3c-0.3-0.6-0.5-1.1-0.5-1.6V8.6
		c0-0.5,0.2-1.1,0.5-1.6c0.3-0.6,0.7-1,1.1-1.3l7.5-5c0.4-0.2,0.8-0.3,1.1-0.1c0.3,0.1,0.5,0.5,0.5,1L317.2,64.5z"/>
</g>
</svg>
