<?xml version="1.0" encoding="utf-8"?>
<!-- Generator: Adobe Illustrator 24.2.0, SVG Export Plug-In . SVG Version: 6.00 Build 0)  -->
<svg version="1.1" id="Layer_1" xmlns="http://www.w3.org/2000/svg" xmlns:xlink="http://www.w3.org/1999/xlink" x="0px" y="0px"
	 width="1200px" height="1200px" viewBox="0 0 1200 1200" style="enable-background:new 0 0 1200 1200;" xml:space="preserve">
<style type="text/css">
	.st0{stroke:#000000;stroke-miterlimit:10;}
	.st1{fill:#6CF24A;}
</style>
<path class="st0" d="M313.1,549.9c21.8,21.8,43.5,37.3,71.5,65.3c6.2-15.5,28-24.9,40.4-24.9C443.6,263.8,577.3,74.2,577.3,74.2
	s-77.7,155.5-108.8,503.7c6.2,3.1,31.1,6.2,46.6,12.4C508.9,326,608.4,12,608.4,12S330,397.4,313.1,549.9z"/>
<path class="st0" d="M527.6,503.2c15.5,3.1,37.3,12.4,49.7,24.9c80.8-214.5,211.4-348.2,211.4-348.2S664.4,357.1,605.3,537.4
	c12.4,6.2,28,12.4,40.4,24.9c90.2-270.5,186.5-438.4,186.5-438.4S602.2,288.7,527.6,503.2z"/>
<path class="st0" d="M540,531.2c18.7,52.9,24.9,83.9,34.2,164.8c12.4-6.2,31.1-15.5,43.5-15.5c-52.9-90.2-52.9-121.3-52.9-121.3
	s40.4,37.3,71.5,115c15.5-9.3,68.4-12.4,87.1-6.2c24.9,9.3,40.4,34.2,37.3,59.1c83.9,56,143,93.3,298.5,205.2c28,0,37.3,0,37.3,0
	L813.6,742.6c0,0,3.1-21.8,0-40.4C689.3,608.9,670.6,580.9,540,531.2z"/>
<path class="st1" d="M658.2,705.3c21.8-12.4,40.4-18.7,59.1-12.4c15.5,6.2,21.8,21.8,24.9,43.5C723.5,736.4,679.9,739.5,658.2,705.3
	z"/>
<path class="st1" d="M1062.3,950.9c0,6.2,5.5,13.8,9.3,15.5c9.3,0,28-3.1,40.4-3.1c9.3,6.2,21.8,24.9,21.8,28c6.2,0,16.1-2,18.7-6.2
	c0-6.2,0-15.5,0-21.8c-9.3-12.4-21.8-21.8-34.2-21.8c-3.1,3.1-6.2,6.2-9.3,9.3C1097.3,950.9,1074.8,947.8,1062.3,950.9z"/>
<path class="st0" d="M1049.9,969.6c-12.4,21.8-24.9,49.7-37.3,74.6c28,3.1,37.3,3.1,59.1-3.1c21.8-15.5,40.4-43.5,43.5-56
	C1093.4,982,1071.7,975.8,1049.9,969.6z"/>
<path class="st0" d="M910,879.4c0,0,18.7,71.5,87.1,149.2c12.4-18.7,37.3-62.2,37.3-77.7C1034.4,941.1,910,879.4,910,879.4z"/>
<path class="st0" d="M810.5,845.2c6.2,18.7,15.5,87.1,161.7,195.9c-102.6-130.6-87.1-171-87.1-171L810.5,845.2z"/>
<path class="st1" d="M701.7,823.5c0,0,28,62.2,65.3,93.3c21.8,12.4,34.2,12.4,59.1,15.5c-31.1-46.6-40.4-74.6-43.5-93.3
	C757.7,835.9,701.7,823.5,701.7,823.5z"/>
<path class="st1" d="M449.9,817.2c12.4,9.3,21.8,21.8,34.2,71.5c34.2-6.2,115,6.2,115,6.2s-18.7-62.2-59.1-77.7
	C493.4,811,449.9,817.2,449.9,817.2z"/>
<path class="st0" d="M356.6,655.6c0,0,18.7,56,24.9,115c12.4,6.2,52.9,28,52.9,28s50.7-19.9,68.4-18.7
	c46.6,15.5,121.3,52.9,115,127.5c24.9-9.3,62.2-6.2,105.7-3.1c-18.7-46.6-49.7-83.9-49.7-83.9s-62.2-3.1-87.1-6.2
	c-59.1-40.4-74.6-74.6-83.9-90.2C446.8,705.3,356.6,655.6,356.6,655.6z"/>
<path class="st1" d="M194.9,441c65.3-3.1,127.5,9.3,127.5,9.3s-18.7,46.6-34.2,105.7c34.2,37.3,80.8,71.5,108.8,80.8
	c3.1-15.5,21.8-31.1,37.3-31.1c6.2-31.1,21.8-124.4,21.8-124.4s-6.2,90.2-9.3,115c28,0,56,9.3,77.7,21.8c3.1-18.7,3.1-77.7,3.1-77.7
	s12.4,108.8,28,171c37.3,21.8,143,59.1,143,59.1s56,6.2,68.4,3.1c31.1,21.8,130.6,77.7,130.6,77.7l-180.3-56H592.9l-74.6-90.2
	l-202.1-96.4C316.2,608.9,213.6,497,194.9,441z"/>
<path class="st1" d="M325.5,857.7c4.4-26.2,37.3-28,56-18.7c16.2,8.1,21.8,21.8,15.5,52.9c-6.2,18.7-35.6,15.9-46.6,9.3
	C334.8,891.8,322.4,876.3,325.5,857.7z"/>
<path class="st0" d="M742.1,929.2c-59.1-3.1-195.9,0-264.3-12.4c-12.4-68.4-56-115-108.8-127.5c-15.8-30.7-24.9-99.5-34.2-133.7
	C288.2,612,191.8,521.9,170.1,441c-24.9-3.1-65.3,3.1-83.9,21.8c77.7,74.6,139.9,143,177.2,205.2c24.9,37.3,40.4,111.9,49.7,164.8
	c31.1-43.5,77.5-18.9,96.4,0c12.4,12.4,18.7,34.2,12.4,65.3c-12.4,34.2-65.3,34.2-65.3,34.2s62.2,15.5,83.9,28
	c87.1-9.3,239.4-12.4,317.1-6.2c49.7,3.1,130.6,37.3,130.6,37.3S838.5,947.8,742.1,929.2z M120.3,487.7c-3.1-3.1-6.6-25.9,0-28
	c10.4-3.3,40.4-6.2,43.5,0s0,21.8-3.1,24.9S123.4,490.8,120.3,487.7z M151.4,518.8c-3.1-3.1-6.7-19.9,0-21.8
	c9-2.6,34.2-3.1,37.3,3.1s3.1,18.7,0,21.8S154.5,521.9,151.4,518.8z M185.6,556.1c-3.1-3.1-8.1-18.4,0-21.8c6.5-2.7,24.9,0,28,3.1
	s3.1,12.4,0,15.5S188.7,559.2,185.6,556.1z M219.8,596.5c-6.2-3.1-9.3-24.9-3.1-28c6.3-3.1,21.8,0,28,3.1s6.2,18.7,3.1,21.8
	S226,599.6,219.8,596.5z M254,643.1c-3.1-3.1-6-17.1-3.1-21.8c3.7-5.9,28-6.2,31.1-3.1s3.1,18.7,0,21.8S257.1,646.2,254,643.1z
	 M282,677.3c-1.4-2.8-5.6-16,6.2-21.8c6.3-3.1,24.9-3.1,28,0s6.2,12.4,3.1,21.8C314.9,690.5,285.1,683.5,282,677.3z M300.6,702.2
	c7.5-4.1,28-6.2,34.2,0c6.2,6.2,3.1,18.7,0,24.9s-28,6.2-34.2,3.1S292.9,706.4,300.6,702.2z M347.3,770.6c-3.1,6.2-24.9,3.1-31.1,0
	s-7.7-17.4,0-21.8c6.8-3.8,24.9-6.2,31.1,0C350.4,755.1,350.4,764.4,347.3,770.6z"/>
<path class="st0" d="M353.5,947.8c31.1,40.4,52.9,52.9,77.7,59.1c31.1,3.1,93.3,6.2,115-9.3L540,982l-102.6,3.1
	C437.4,985.1,384.6,966.5,353.5,947.8z"/>
<path class="st1" d="M415.7,1019.3c9.3,21.8,37.3,46.6,37.3,46.6s90.2-9.3,108.8-21.8c-6.2-9.3-9.3-21.8-9.3-21.8
	S456.1,1053.5,415.7,1019.3z"/>
<path class="st0" d="M490.3,1084.6c15.5,12.4,31.1,18.7,43.5,21.8c28-15.5,49.7-37.3,49.7-37.3l-6.2-6.2
	C577.3,1062.8,546.2,1087.7,490.3,1084.6z"/>
<path class="st1" d="M552.5,1115.7c-3.2,22.4,34.2,56,59.1,68.4c15.5,6.2,26.2,4.8,34.2,0c5.7-3.5,15.5-15.5,18.7-24.9
	c6-17.9-4.2-33.5-9.3-40.4c-18.7-24.9-49.7-37.3-49.7-37.3S589.8,1106.4,552.5,1115.7z"/>
</svg>
