<?xml version="1.0" encoding="utf-8"?>
<!-- Generator: Adobe Illustrator 24.2.0, SVG Export Plug-In . SVG Version: 6.00 Build 0)  -->
<svg version="1.1" id="Layer_1" xmlns="http://www.w3.org/2000/svg" xmlns:xlink="http://www.w3.org/1999/xlink" x="0px" y="0px"
	 width="400px" height="105px" viewBox="0 0 400 105" style="enable-background:new 0 0 400 105;" xml:space="preserve">
<g>
	<path d="M28.3,18.2c-0.5,0-0.8-0.1-0.8-0.3c0-0.2,0.1-0.5,0.6-0.7l7.9-5.5c0.4-0.3,1-0.5,1.6-0.7c0.6-0.2,1.2-0.3,1.7-0.3h41.6
		c0.5,0,0.8,0.1,0.9,0.3c0.1,0.2-0.1,0.5-0.5,0.7l-8,5.5c-0.4,0.3-1,0.5-1.6,0.7c-0.6,0.2-1.2,0.3-1.7,0.3h-8.5
		c-0.5,0-1,0.2-1.3,0.5c-0.4,0.4-0.5,0.8-0.5,1.3v45.9c0,0.5-0.2,1.1-0.5,1.6c-0.3,0.5-0.6,1-1,1.2l-8,5.5c-0.4,0.3-0.7,0.4-1,0.2
		c-0.3-0.1-0.5-0.5-0.5-1V20.1c0-0.5-0.2-1-0.5-1.3c-0.4-0.4-0.8-0.5-1.3-0.5H28.3z"/>
	<path d="M104.9,84.1c0,0.5-0.2,1.1-0.5,1.6c-0.3,0.6-0.6,1-1,1.3L89,97.4c-0.4,0.3-0.9,0.5-1.5,0.5s-1.1-0.2-1.5-0.5l-6.7-4.7
		c-0.4-0.3-0.8-0.7-1.1-1.3s-0.4-1.1-0.4-1.6v-6.3c0-0.5,0.1-1.1,0.4-1.6s0.6-1,1.1-1.3L93,70.9c0.4-0.2,0.7-0.6,1-1.1
		c0.3-0.5,0.4-1,0.5-1.5v-1.3c0-0.5-0.1-0.9-0.3-1.3c-0.2-0.3-0.5-0.5-0.7-0.5c-0.3,0-0.7,0.1-1.2,0.3c-0.5,0.2-0.9,0.4-1.3,0.7
		l-2.8,2.1c-0.4,0.3-0.9,0.4-1.5,0.4c-0.6,0-1.1-0.1-1.5-0.4L75.1,61c-0.4-0.3-0.8-0.7-1.1-1.3s-0.4-1.1-0.4-1.6V29.3
		c0-0.5,0.1-0.9,0.4-1c0.3-0.2,0.6-0.1,1.1,0.2l7.4,5.2c0.4,0.3,0.7,0.7,1,1.3c0.3,0.6,0.5,1.1,0.5,1.6v17.5c0,0.5,0.1,1.1,0.4,1.6
		s0.6,1,1.1,1.3l5.2,3.8c0.4,0.3,0.8,0.5,1.3,0.5c0.5,0.1,0.9,0,1.3-0.2c0.3-0.2,0.5-0.6,0.7-1.1c0.2-0.5,0.3-1,0.3-1.5V36.7
		c0-0.5,0.1-1.1,0.4-1.6c0.3-0.6,0.6-1,1.1-1.3l7.5-5.3c0.4-0.3,0.7-0.4,1-0.2c0.3,0.1,0.5,0.5,0.5,1V84.1z M94.5,75
		c0-0.5-0.2-0.9-0.5-1c-0.3-0.2-0.6-0.1-1,0.2l-3.2,2.2c-0.4,0.3-0.7,0.7-1,1.3c-0.3,0.6-0.5,1.1-0.5,1.6v6.6c0,0.5,0.1,1.1,0.4,1.6
		s0.6,1,1.1,1.3l1.8,1.3c0.4,0.3,0.8,0.5,1.2,0.6c0.4,0.1,0.7,0.1,1-0.1c0.2-0.1,0.3-0.4,0.5-0.9c0.1-0.5,0.2-1,0.2-1.5V75z"/>
	<path d="M119.6,73.4c0,0.5-0.1,0.8-0.4,1c-0.3,0.1-0.6,0.1-1.1-0.2l-7.3-4.9c-0.4-0.3-0.8-0.7-1.1-1.2c-0.3-0.5-0.5-1.1-0.5-1.6
		V18.4c0-0.5,0.2-1,0.5-1.6c0.3-0.5,0.7-1,1.1-1.2l7.4-5c0.4-0.2,0.8-0.3,1.1-0.1c0.3,0.1,0.5,0.5,0.5,1L119.6,73.4z"/>
	<path d="M135.9,55v6.4c0.1,0.5,0.3,0.9,0.6,1.4c0.3,0.5,0.6,0.8,1,1.1l5.2,3.3c0.4,0.3,0.9,0.4,1.5,0.4s1.1-0.1,1.5-0.4l5.1-3.3
		c0.4-0.3,0.9-0.4,1.4-0.5c0.5,0,0.9,0,1.3,0.3c0.3,0.2,0.5,0.4,0.4,0.8c-0.1,0.3-0.3,0.6-0.7,0.9l-13.2,8.5
		c-0.4,0.3-0.9,0.4-1.5,0.4s-1.1-0.1-1.6-0.4l-9.8-6.4c-0.4-0.2-0.8-0.6-1.1-1.2c-0.3-0.5-0.5-1.1-0.5-1.6V41.7c0-0.5,0.2-1,0.5-1.6
		c0.3-0.5,0.7-1,1.1-1.2l5.9-3.8c0,0,0.1,0,0.1,0c0,0,0.1,0,0.1,0l1.3-0.8l8.1-5.2c0.4-0.2,0.6-0.4,0.7-0.4c0.4-0.2,0.9-0.3,1.5-0.2
		c0.5,0,1,0.2,1.4,0.4l7.1,4.5c0.4,0.3,0.8,0.7,1.1,1.2c0.3,0.5,0.4,1.1,0.4,1.6v2.2v0.5v0.5c0,0.5-0.1,1.1-0.4,1.6
		c-0.3,0.5-0.6,1-1.1,1.2l-15.6,10.1c-0.4,0.3-0.8,0.7-1.1,1.2C136,53.9,135.9,54.4,135.9,55z M135.9,48.2c0,0.5,0.2,0.9,0.5,1
		c0.3,0.2,0.7,0.1,1.1-0.2l5.3-3.5c0.4-0.2,0.7-0.6,1-1c0.3-0.4,0.4-0.9,0.5-1.4v-4c0-0.5-0.2-1-0.5-1.6c-0.3-0.5-0.7-1-1.1-1.2
		l-2.1-1.3c-0.4-0.3-0.9-0.4-1.5-0.4s-1.1,0.1-1.5,0.4c-0.1,0-0.2,0.1-0.2,0.1c0,0-0.1,0.1-0.2,0.1c-0.4,0.2-0.7,0.6-0.9,1.1
		c-0.2,0.5-0.4,1-0.4,1.5V48.2z"/>
	<path d="M188.9,33.8c0,0.4-0.2,0.7-0.6,1l-4.2,2.8c-0.4,0.3-0.9,0.4-1.6,0.4c-0.6,0-1.1-0.1-1.6-0.4l-4.3-2.9
		c-0.4-0.3-0.9-0.4-1.5-0.5c-0.6,0-1.1,0.1-1.5,0.4l-2.7,1.7c-0.4,0.3-0.8,0.7-1.1,1.2c-0.3,0.5-0.4,1.1-0.5,1.6v34.3
		c0,0.5-0.2,0.8-0.5,1c-0.3,0.1-0.7,0.1-1.1-0.1l-7.3-4.7c-0.4-0.3-0.8-0.7-1.1-1.2c-0.3-0.5-0.4-1.1-0.4-1.6v-37
		c0-0.5,0.2-0.8,0.5-1c0.3-0.1,0.6-0.1,1,0.2l7.4,5l0.1,0.1c0.4,0.2,0.8,0.4,1.3,0.4c0.5,0,1-0.1,1.3-0.3c0,0,0.1-0.1,0.1-0.1
		c0,0,0.1-0.1,0.1-0.1l8.1-5.2c0.4-0.2,0.9-0.4,1.6-0.4c0.6,0,1.1,0.1,1.6,0.4l6.2,4.1C188.7,33,188.9,33.4,188.9,33.8z"/>
	<path d="M256.4,79.2c0,0.8-0.3,1.1-0.8,1.1c-0.2,0-0.5-0.1-0.7-0.3l-7.6-5.2c-0.4-0.3-0.8-0.7-1.1-1.3c-0.3-0.6-0.5-1.1-0.5-1.6
		V40.2c0-0.7-0.3-1.1-0.8-1.1c-0.1,0-0.3,0.1-0.7,0.3l-8.2,5.6c-0.4,0.3-0.8,0.7-1.1,1.3c-0.3,0.6-0.5,1.1-0.5,1.6v18.1
		c0,0.5-0.1,1.1-0.4,1.6c-0.3,0.5-0.6,1-1.1,1.2l-7.6,5.2c-0.2,0.2-0.5,0.3-0.7,0.3c-0.5,0-0.8-0.4-0.8-1.1V26.9
		c0-0.5,0.2-1.1,0.5-1.6c0.3-0.6,0.6-1,1-1.3l19-13c0.4-0.3,0.9-0.4,1.5-0.4c0.6,0,1.1,0.1,1.6,0.4l7.5,5.2c0.4,0.3,0.8,0.7,1.1,1.2
		c0.3,0.5,0.5,1.1,0.5,1.6V79.2z M244.3,36.3c0.4-0.3,0.8-0.7,1.1-1.2c0.3-0.5,0.4-1.1,0.4-1.6V22.1c0-0.5-0.1-1-0.4-1.6
		c-0.3-0.5-0.6-1-1.1-1.2l-2.1-1.5c-0.4-0.3-0.9-0.4-1.6-0.4c-0.6,0-1.1,0.1-1.5,0.4l-3,2.1c-0.4,0.3-0.8,0.7-1.1,1.2
		c-0.3,0.5-0.5,1.1-0.5,1.6v18.3c0,0.8,0.3,1.1,0.8,1.1c0.3,0,0.5-0.1,0.8-0.3L244.3,36.3z"/>
	<path d="M314.3,73.2c0,0.5-0.2,0.9-0.5,1c-0.3,0.2-0.7,0.1-1.1-0.1l-7.4-4.5c-0.4-0.3-0.8-0.7-1.1-1.2c-0.3-0.5-0.5-1.1-0.5-1.6
		V39.2c0-0.5-0.2-1-0.5-1.6c-0.3-0.5-0.7-1-1.1-1.2l-2.2-1.4c-0.4-0.2-0.9-0.4-1.5-0.4s-1.1,0.1-1.5,0.4l-2.7,1.7
		c-0.4,0.3-0.8,0.7-1.1,1.2c-0.3,0.5-0.5,1.1-0.5,1.6l0.1,33.7c0,0.5-0.2,0.9-0.5,1c-0.3,0.2-0.7,0.1-1.1-0.1l-7.4-4.5
		c-0.4-0.3-0.8-0.7-1.1-1.2c-0.3-0.5-0.5-1.1-0.5-1.6V39.3c0-0.5-0.2-1-0.5-1.6c-0.3-0.5-0.7-1-1.1-1.2l-2.1-1.3
		c-0.4-0.3-0.9-0.4-1.6-0.4s-1.1,0.1-1.6,0.4l-2.8,1.7c-0.4,0.3-0.8,0.7-1.1,1.2c-0.3,0.5-0.5,1.1-0.5,1.6l-0.1,33.7
		c0,0.5-0.2,0.9-0.5,1c-0.3,0.2-0.7,0.1-1.1-0.2l-7.2-4.6c-0.4-0.2-0.8-0.6-1.1-1.2c-0.3-0.5-0.5-1.1-0.5-1.6V38.2v-3.7v-4.4
		c0-0.5,0.2-0.8,0.5-1c0.3-0.1,0.7-0.1,1.1,0.1l7.3,4.6c0.4,0.2,0.9,0.4,1.6,0.4c0.6,0,1.1-0.1,1.6-0.4l8.2-5.2
		c0.4-0.2,0.9-0.4,1.6-0.4c0.6,0,1.1,0.1,1.6,0.4l7.1,4.5c0.4,0.3,0.8,0.5,1.1,0.8c0.3,0.2,0.5,0.4,0.5,0.5c0,0.1,0.2,0.1,0.5,0
		c0.3-0.1,0.7-0.3,1.1-0.6l8.1-5.2c0.4-0.2,0.9-0.4,1.6-0.4s1.1,0.1,1.6,0.4l7.1,4.5c0.4,0.3,0.8,0.7,1.1,1.2
		c0.3,0.5,0.5,1.1,0.5,1.6L314.3,73.2z"/>
	<path d="M329,55v6.4c0.1,0.5,0.3,0.9,0.6,1.4c0.3,0.5,0.6,0.8,1,1.1l5.2,3.3c0.4,0.3,0.9,0.4,1.5,0.4s1.1-0.1,1.5-0.4l5.1-3.3
		c0.4-0.3,0.9-0.4,1.4-0.5c0.5,0,0.9,0,1.3,0.3c0.3,0.2,0.5,0.4,0.4,0.8c-0.1,0.3-0.3,0.6-0.7,0.9L333,73.9
		c-0.4,0.3-0.9,0.4-1.5,0.4s-1.1-0.1-1.6-0.4l-9.8-6.4c-0.4-0.2-0.8-0.6-1.1-1.2c-0.3-0.5-0.5-1.1-0.5-1.6V41.7c0-0.5,0.2-1,0.5-1.6
		c0.3-0.5,0.7-1,1.1-1.2L326,35c0,0,0.1,0,0.1,0c0,0,0.1,0,0.1,0l1.3-0.8l8.1-5.2c0.4-0.2,0.6-0.4,0.7-0.4c0.4-0.2,0.9-0.3,1.5-0.2
		c0.5,0,1,0.2,1.4,0.4l7.1,4.5c0.4,0.3,0.8,0.7,1.1,1.2c0.3,0.5,0.4,1.1,0.4,1.6v2.2v0.5v0.5c0,0.5-0.1,1.1-0.4,1.6
		c-0.3,0.5-0.6,1-1.1,1.2l-15.6,10.1c-0.4,0.3-0.8,0.7-1.1,1.2C329.1,53.9,329,54.4,329,55z M329,48.2c0,0.5,0.2,0.9,0.5,1
		c0.3,0.2,0.7,0.1,1.1-0.2l5.3-3.5c0.4-0.2,0.7-0.6,1-1c0.3-0.4,0.4-0.9,0.5-1.4v-4c0-0.5-0.2-1-0.5-1.6c-0.3-0.5-0.7-1-1.1-1.2
		l-2.1-1.3c-0.4-0.3-0.9-0.4-1.5-0.4s-1.1,0.1-1.5,0.4c-0.1,0-0.2,0.1-0.2,0.1c0,0-0.1,0.1-0.2,0.1c-0.4,0.2-0.7,0.6-0.9,1.1
		c-0.2,0.5-0.4,1-0.4,1.5V48.2z"/>
	<path d="M382.6,48.9c0.4,0.2,0.8,0.6,1.1,1.2c0.3,0.6,0.5,1.1,0.5,1.6v8.9c0,0.5-0.2,1.1-0.5,1.6c-0.3,0.5-0.7,0.9-1.1,1.2
		l-15.8,10c-0.4,0.3-1,0.5-1.6,0.7s-1.3,0.3-1.8,0.3h-1.7c-0.5,0-1.1-0.1-1.7-0.3c-0.6-0.2-1.2-0.4-1.6-0.7l-7.1-4.4
		c-0.4-0.3-0.6-0.6-0.6-1c0-0.4,0.2-0.7,0.6-1l5.1-3.1c0.4-0.2,0.9-0.4,1.6-0.4s1.1,0.1,1.5,0.4l4.5,2.9c0.4,0.3,1,0.6,1.6,0.8
		c0.6,0.3,1.2,0.5,1.7,0.6l0.8,0.2c0.5,0.1,1.1,0.2,1.7,0.1c0.6-0.1,1.2-0.3,1.6-0.5l0.4-0.2c0.4-0.3,0.8-0.7,1.1-1.2
		c0.3-0.5,0.5-1.1,0.5-1.6V55.1c0-0.5-0.2-1-0.5-1.6c-0.3-0.5-0.6-1-1-1.2l-1.1-0.8c-0.4-0.3-0.9-0.4-1.6-0.4s-1.1,0.1-1.6,0.4
		l-4.5,2.9c-0.4,0.3-0.9,0.4-1.6,0.4s-1.1-0.1-1.6-0.4l-6.6-4c-0.4-0.2-0.8-0.6-1.1-1.2c-0.3-0.5-0.5-1.1-0.5-1.6v-8.1
		c0-0.5,0.1-1,0.4-1.6c0.3-0.5,0.6-0.9,1.1-1.2l11.8-7.4c0.4-0.3,1-0.5,1.6-0.7c0.7-0.2,1.3-0.3,1.8-0.3h4.6h3.7h0.3
		c0.5,0,0.8,0.1,0.8,0.3c0,0.2-0.1,0.4-0.6,0.6l-7.4,4.6c-0.4,0.3-1,0.5-1.6,0.7c-0.7,0.2-1.3,0.3-1.8,0.3l-2.4,0.1
		c-0.5,0-1,0.2-1.3,0.5c-0.4,0.4-0.5,0.8-0.5,1.3v7.4c0,0.5,0.2,1.1,0.5,1.6c0.3,0.5,0.7,1,1.1,1.2l2.1,1.3c0.4,0.3,0.9,0.4,1.6,0.4
		c0.6,0,1.1-0.1,1.6-0.4l4.7-3c0.4-0.3,0.9-0.4,1.6-0.4c0.6,0,1.1,0.1,1.6,0.4L382.6,48.9z"/>
</g>
</svg>
