<?xml version="1.0" encoding="utf-8"?>
<!-- Generator: Adobe Illustrator 25.2.0, SVG Export Plug-In . SVG Version: 6.00 Build 0)  -->
<svg version="1.1" id="Layer_1" xmlns="http://www.w3.org/2000/svg" xmlns:xlink="http://www.w3.org/1999/xlink" x="0px" y="0px"
	 viewBox="0 0 160.4 39.4" style="enable-background:new 0 0 160.4 39.4;" xml:space="preserve">
<style type="text/css">
	.st0{fill:#FFFFFF;}
</style>
<g>
	<path class="st0" d="M0.4,3.6C0.1,3.6,0,3.6,0,3.5s0-0.2,0.3-0.3l3.6-2.5C4,0.6,4.3,0.5,4.5,0.4S5,0.3,5.3,0.3H24
		c0.2,0,0.4,0,0.4,0.1s0,0.2-0.2,0.3l-3.6,2.5c-0.2,0.1-0.4,0.2-0.7,0.3c-0.3,0.1-0.5,0.1-0.8,0.1h-3.8c-0.2,0-0.4,0.1-0.6,0.2
		c-0.2,0.2-0.2,0.4-0.2,0.6v20.7c0,0.2-0.1,0.5-0.2,0.7c-0.1,0.2-0.3,0.4-0.4,0.5l-3.6,2.5c-0.2,0.1-0.3,0.2-0.4,0.1
		c-0.1,0-0.2-0.2-0.2-0.4v-24c0-0.2-0.1-0.4-0.2-0.6C9.1,3.7,8.9,3.7,8.7,3.7L0.4,3.6L0.4,3.6z"/>
	<path class="st0" d="M34.8,33.2c0,0.2-0.1,0.5-0.2,0.7c-0.1,0.3-0.3,0.4-0.4,0.6l-6.5,4.7c-0.2,0.1-0.4,0.2-0.7,0.2
		s-0.5-0.1-0.7-0.2l-3-2.1c-0.2-0.1-0.4-0.3-0.5-0.6c-0.1-0.3-0.2-0.5-0.2-0.7V33c0-0.2,0-0.5,0.2-0.7c0.1-0.2,0.3-0.4,0.5-0.6
		l6.2-4.4c0.2-0.1,0.3-0.3,0.4-0.5s0.2-0.4,0.2-0.7v-0.6c0-0.2,0-0.4-0.1-0.6c-0.1-0.1-0.2-0.2-0.3-0.2c-0.1,0-0.3,0-0.5,0.1
		S28.8,25,28.6,25l-1.3,1c-0.2,0.1-0.4,0.2-0.7,0.2s-0.5,0-0.7-0.2l-4.5-3.3c-0.2-0.1-0.4-0.3-0.5-0.6s-0.2-0.5-0.2-0.7v-13
		c0-0.2,0-0.4,0.2-0.4c0.1,0,0.3,0,0.5,0.1l3.3,2.3c0.2,0.1,0.3,0.3,0.4,0.6s0.2,0.5,0.2,0.7v7.9c0,0.2,0,0.5,0.2,0.7
		c0.1,0.2,0.3,0.4,0.5,0.6l2.3,1.7c0.2,0.1,0.4,0.2,0.6,0.2s0.4,0,0.6-0.1c0.1-0.1,0.2-0.3,0.3-0.5c0.1-0.2,0.1-0.4,0.1-0.7v-9.8
		c0-0.2,0-0.5,0.2-0.7c0.1-0.3,0.3-0.4,0.5-0.6L34,8.1c0.3,0,0.4,0,0.5,0.1c0.1,0,0.2,0.2,0.2,0.4L34.8,33.2L34.8,33.2z M30.1,29.2
		c0-0.2-0.1-0.4-0.2-0.4c-0.1-0.1-0.3,0-0.4,0.1l-1.4,1c-0.2,0.1-0.3,0.3-0.4,0.6c-0.1,0.3-0.2,0.5-0.2,0.7v3c0,0.2,0,0.5,0.2,0.7
		c0.2,0.2,0.3,0.4,0.5,0.6l0.8,0.6c0.2,0.1,0.4,0.2,0.5,0.3c0.2,0,0.3,0,0.4,0s0.1-0.2,0.2-0.4c0-0.2,0.1-0.4,0.1-0.7v-6.1
		C30.2,29.1,30.1,29.1,30.1,29.2z"/>
	<path class="st0" d="M41.4,28.4c0,0.2,0,0.4-0.2,0.4c-0.1,0-0.3,0-0.5-0.1l-3.3-2.2c-0.2-0.1-0.4-0.3-0.5-0.5s-0.2-0.5-0.2-0.7V3.7
		c0-0.2,0.1-0.4,0.2-0.7c0.1-0.2,0.3-0.4,0.5-0.5l3.3-2.2c0.3-0.2,0.4-0.2,0.6-0.2c0.1,0,0.2,0.2,0.2,0.4L41.4,28.4z"/>
	<path class="st0" d="M48.7,20.2v2.9c0,0.2,0.1,0.4,0.3,0.6c0.1,0.2,0.3,0.4,0.4,0.5l2.3,1.5c0.2,0.1,0.4,0.2,0.7,0.2s0.5,0,0.7-0.2
		l2.3-1.5c0.2-0.1,0.4-0.2,0.6-0.2c0.2,0,0.4,0,0.6,0.1c0.1,0.1,0.2,0.2,0.2,0.4c0,0.1-0.1,0.3-0.3,0.4l-5.9,3.8
		c-0.2,0.1-0.4,0.2-0.7,0.2s-0.5,0-0.7-0.2l-4.4-2.9c-0.2-0.1-0.4-0.3-0.5-0.5s-0.2-0.5-0.2-0.7V14.2c0-0.2,0.1-0.4,0.2-0.7
		c0.1-0.2,0.3-0.4,0.5-0.5l2.7-1.7l0,0l0,0l0.6-0.4l3.6-2.3C51.9,8.5,52,8.4,52,8.4c0.2-0.1,0.4-0.1,0.7-0.1c0.2,0,0.4,0.1,0.6,0.2
		l3.2,2c0.2,0.1,0.4,0.3,0.5,0.5s0.2,0.5,0.2,0.7v1v0.2v0.2c0,0.2,0,0.5-0.2,0.7c-0.1,0.2-0.3,0.4-0.5,0.5l-7,4.5
		c-0.2,0.1-0.4,0.3-0.5,0.5C48.8,19.7,48.7,19.9,48.7,20.2z M48.7,17.1c0,0.2,0.1,0.4,0.2,0.4c0.1,0.1,0.3,0,0.5-0.1l2.4-1.6
		c0.2-0.1,0.3-0.3,0.4-0.4c0.1-0.2,0.2-0.4,0.2-0.6v-1.8c0-0.2-0.1-0.4-0.2-0.7c-0.1-0.2-0.3-0.4-0.5-0.5l-0.9-0.6
		c-0.2-0.1-0.4-0.2-0.7-0.2s-0.5,0-0.7,0.2h-0.1c0,0,0,0-0.1,0c-0.2,0.1-0.3,0.3-0.4,0.5s-0.2,0.4-0.2,0.7L48.7,17.1L48.7,17.1z"/>
	<path class="st0" d="M72.6,10.6c0,0.2-0.1,0.3-0.3,0.4l-1.9,1.3c-0.2,0.1-0.4,0.2-0.7,0.2c-0.3,0-0.5,0-0.7-0.2L67,11
		c-0.2-0.1-0.4-0.2-0.7-0.2c-0.3,0-0.5,0-0.7,0.2l-1.2,0.8c-0.2,0.1-0.4,0.3-0.5,0.5s-0.2,0.5-0.2,0.7v15.4c0,0.2-0.1,0.4-0.2,0.4
		c-0.1,0-0.3,0-0.5,0l-3.3-2.1c-0.2-0.1-0.4-0.3-0.5-0.5S59,25.7,59,25.5V8.8c0-0.2,0.1-0.4,0.2-0.4c0.1,0,0.3,0,0.4,0.1l3.3,2.2
		l0,0c0.2,0.1,0.4,0.2,0.6,0.2s0.4,0,0.6-0.1l0,0l0,0L68,8.4c0.2-0.1,0.4-0.2,0.7-0.2c0.3,0,0.5,0,0.7,0.2l2.8,1.8
		C72.5,10.3,72.6,10.4,72.6,10.6z"/>
	<path class="st0" d="M102.9,31c0,0.4-0.1,0.5-0.4,0.5c-0.1,0-0.2,0-0.3-0.1l-3.4-2.3c-0.2-0.1-0.4-0.3-0.5-0.6
		c-0.1-0.3-0.2-0.5-0.2-0.7V13.5c0-0.3-0.1-0.5-0.4-0.5c0,0-0.1,0-0.3,0.1l-3.7,2.5c-0.2,0.1-0.4,0.3-0.5,0.6
		C93.1,16.5,93,16.7,93,17v8.1c0,0.2,0,0.5-0.2,0.7c-0.1,0.2-0.3,0.4-0.5,0.5l-3.4,2.3c-0.1,0.1-0.2,0.1-0.3,0.1
		c-0.2,0-0.4-0.2-0.4-0.5V7.5c0-0.2,0.1-0.5,0.2-0.7c0.1-0.3,0.3-0.4,0.4-0.6l8.5-5.8c0.2-0.1,0.4-0.2,0.7-0.2c0.3,0,0.5,0,0.7,0.2
		l3.4,2.3c0.2,0.1,0.4,0.3,0.5,0.5s0.2,0.5,0.2,0.7L102.9,31L102.9,31z M97.5,11.8c0.2-0.1,0.4-0.3,0.5-0.5s0.2-0.5,0.2-0.7V5.4
		c0-0.2,0-0.4-0.2-0.7c-0.1-0.2-0.3-0.4-0.5-0.5l-0.9-0.7c-0.2-0.1-0.4-0.2-0.7-0.2c-0.3,0-0.5,0-0.7,0.2l-1.3,0.9
		c-0.2,0.1-0.4,0.3-0.5,0.5s-0.2,0.5-0.2,0.7v8.2c0,0.4,0.1,0.5,0.4,0.5c0.1,0,0.2,0,0.4-0.1L97.5,11.8z"/>
	<path class="st0" d="M129,28.3c0,0.2-0.1,0.4-0.2,0.4c-0.1,0.1-0.3,0-0.5,0l-3.3-2c-0.2-0.1-0.4-0.3-0.5-0.5s-0.2-0.5-0.2-0.7V13.1
		c0-0.2-0.1-0.4-0.2-0.7c-0.1-0.2-0.3-0.4-0.5-0.5l-1-0.6c-0.2-0.1-0.4-0.2-0.7-0.2c-0.3,0-0.5,0-0.7,0.2l-1.2,0.8
		c-0.2,0.1-0.4,0.3-0.5,0.5s-0.2,0.5-0.2,0.7v15.2c0,0.2-0.1,0.4-0.2,0.4c-0.1,0.1-0.3,0-0.5,0l-3.3-2c-0.2-0.1-0.4-0.3-0.5-0.5
		s-0.2-0.5-0.2-0.7V13.1c0-0.2-0.1-0.4-0.2-0.7c-0.1-0.2-0.3-0.4-0.5-0.5l-0.9-0.6c-0.2-0.1-0.4-0.2-0.7-0.2s-0.5,0-0.7,0.2
		l-1.3,0.8c-0.2,0.1-0.4,0.3-0.5,0.5s-0.2,0.5-0.2,0.7v15.2c0,0.2-0.1,0.4-0.2,0.4c-0.1,0.1-0.3,0-0.5-0.1l-3.2-2.1
		c-0.2-0.1-0.4-0.3-0.5-0.5s-0.2-0.5-0.2-0.7V12.6v-1.7v-2c0-0.2,0.1-0.4,0.2-0.4s0.3,0,0.5,0l3.3,2.1c0.2,0.1,0.4,0.2,0.7,0.2
		c0.3,0,0.5,0,0.7-0.2l3.7-2.3c0.2-0.1,0.4-0.2,0.7-0.2c0.3,0,0.5,0,0.7,0.2l3.2,2c0.2,0.1,0.4,0.2,0.5,0.4c0.1,0.1,0.2,0.2,0.2,0.2
		s0.1,0,0.2,0s0.3-0.1,0.5-0.3l3.6-2.3c0.2-0.1,0.4-0.2,0.7-0.2s0.5,0,0.7,0.2l3.2,2c0.2,0.1,0.4,0.3,0.5,0.5s0.2,0.5,0.2,0.7
		L129,28.3L129,28.3z"/>
	<path class="st0" d="M135.6,20.2v2.9c0,0.2,0.1,0.4,0.3,0.6c0.1,0.2,0.3,0.4,0.4,0.5l2.3,1.5c0.2,0.1,0.4,0.2,0.7,0.2
		s0.5,0,0.7-0.2l2.3-1.5c0.2-0.1,0.4-0.2,0.6-0.2c0.2,0,0.4,0,0.6,0.1c0.1,0.1,0.2,0.2,0.2,0.4c0,0.1-0.1,0.3-0.3,0.4l-6,3.8
		c-0.2,0.1-0.4,0.2-0.7,0.2s-0.5,0-0.7-0.2l-4.4-2.9c-0.2-0.1-0.4-0.3-0.5-0.5s-0.2-0.5-0.2-0.7V14.2c0-0.2,0.1-0.4,0.2-0.7
		c0.1-0.2,0.3-0.4,0.5-0.5l2.7-1.8l0,0l0,0l0.6-0.4l3.6-2.3c0.2-0.1,0.3-0.2,0.3-0.2c0.2-0.1,0.4-0.1,0.7-0.1c0.2,0,0.4,0.1,0.6,0.2
		l3.2,2c0.2,0.1,0.4,0.3,0.5,0.5s0.2,0.5,0.2,0.7v1v0.2v0.3c0,0.2,0,0.5-0.2,0.7c-0.1,0.2-0.3,0.4-0.5,0.5l-7,4.5
		c-0.2,0.1-0.4,0.3-0.5,0.5C135.6,19.7,135.6,19.9,135.6,20.2z M135.6,17.1c0,0.2,0.1,0.4,0.2,0.4c0.1,0.1,0.3,0,0.5-0.1l2.4-1.6
		c0.2-0.1,0.3-0.3,0.4-0.4c0.1-0.2,0.2-0.4,0.2-0.6v-1.8c0-0.2-0.1-0.4-0.2-0.7c-0.1-0.2-0.3-0.4-0.5-0.5l-0.9-0.6
		c-0.2-0.1-0.4-0.2-0.7-0.2s-0.5,0-0.7,0.2h-0.1c0,0,0,0-0.1,0c-0.2,0.1-0.3,0.3-0.4,0.5s-0.2,0.4-0.2,0.7L135.6,17.1L135.6,17.1z"
		/>
	<path class="st0" d="M159.7,17.4c0.2,0.1,0.4,0.3,0.5,0.5c0.1,0.3,0.2,0.5,0.2,0.7v4c0,0.2-0.1,0.5-0.2,0.7
		c-0.1,0.2-0.3,0.4-0.5,0.5l-7.1,4.5c-0.2,0.1-0.4,0.2-0.7,0.3c-0.3,0.1-0.6,0.1-0.8,0.1h-0.8c-0.2,0-0.5,0-0.8-0.1
		s-0.5-0.2-0.7-0.3l-3.2-2c-0.2-0.1-0.3-0.3-0.3-0.4s0.1-0.3,0.3-0.4l2.3-1.4c0.2-0.1,0.4-0.2,0.7-0.2s0.5,0,0.7,0.2l2,1.3
		c0.2,0.1,0.4,0.3,0.7,0.4s0.5,0.2,0.8,0.3l0.4,0.1c0.2,0,0.5,0.1,0.8,0c0.3,0,0.5-0.1,0.7-0.2l0.2-0.1c0.2-0.1,0.4-0.3,0.5-0.5
		s0.2-0.5,0.2-0.7v-4.5c0-0.2-0.1-0.4-0.2-0.7c-0.1-0.2-0.3-0.4-0.4-0.5l-0.5-0.4c-0.2-0.1-0.4-0.2-0.7-0.2s-0.5,0-0.7,0.2l-2,1.3
		c-0.2,0.1-0.4,0.2-0.7,0.2s-0.5,0-0.7-0.2l-3-1.8c-0.2-0.1-0.4-0.3-0.5-0.5s-0.2-0.5-0.2-0.7v-3.6c0-0.2,0-0.4,0.2-0.7
		c0.1-0.2,0.3-0.4,0.5-0.5l5.3-3.3c0.2-0.1,0.4-0.2,0.7-0.3s0.6-0.1,0.8-0.1h2.1h1.7h0.1c0.2,0,0.4,0,0.4,0.1s0,0.2-0.3,0.3
		l-3.3,2.1c-0.2,0.1-0.4,0.2-0.7,0.3s-0.6,0.1-0.8,0.1h-1.1c-0.2,0-0.4,0.1-0.6,0.2c-0.2,0.2-0.2,0.4-0.2,0.6v3.3
		c0,0.2,0.1,0.5,0.2,0.7c0.1,0.2,0.3,0.4,0.5,0.5l0.9,0.6c0.2,0.1,0.4,0.2,0.7,0.2s0.5,0,0.7-0.2l2.1-1.3c0.2-0.1,0.4-0.2,0.7-0.2
		s0.5,0,0.7,0.2L159.7,17.4z"/>
</g>
</svg>
